<svg width="46" height="156" viewBox="0 0 46 156" fill="none" xmlns="http://www.w3.org/2000/svg">
<path d="M17.2376 1.58222C18.3136 -0.527406 21.8106 -0.527406 22.8867 1.58222C32.0327 17.9318 40.3717 34.5451 45.2137 52.4769C45.7517 55.1139 42.7927 57.751 40.3717 56.1688C34.9917 52.4769 30.4187 47.994 26.3837 42.7199C27.4597 79.6383 32.5707 117.875 23.6937 154.266C23.1557 156.903 18.5831 156.376 18.8521 153.738C23.6937 116.029 19.9276 78.5831 19.3901 40.8736C14.8171 44.8291 10.2441 48.7846 5.94004 52.7402C4.05704 54.5861 0.0215836 53.5313 0.290585 50.3669C2.44303 32.9629 8.36105 16.6133 17.2376 1.58222ZM20.1966 32.9629C21.8107 30.5896 26.3837 31.117 26.3837 34.8088C26.3837 35.0725 26.3837 35.3362 26.3837 35.3362C29.6117 38.5007 32.5707 41.6651 36.0677 44.8295C31.7637 32.6992 26.3837 21.36 20.1971 10.0207C14.8171 20.3051 10.7821 30.8533 8.63005 42.1925C11.5891 39.5555 14.8171 36.9184 17.7765 34.0177C18.3136 32.9629 19.3901 32.6992 20.1966 32.9629Z" fill="white"/>
</svg>
